{"glyphs":{"0":{"ha":801,"x_min":0,"x_max":0,"o":"m 871 974 l 500 974 b 199 788 253 974 218 843 l -69 1 l 368 1 b 593 163 489 1 553 44 z m 803 925 l 550 183 b 383 50 517 85 454 50 l 251 50 l 503 785 b 646 925 549 903 614 925 z "},"1":{"ha":511,"x_min":0,"x_max":0,"o":"m 132 813 l 183 813 l 196 849 b 318 925 214 899 274 924 l 351 925 b 254 786 308 890 272 842 l -14 0 l 290 0 l 622 972 l 336 972 b 154 876 271 972 175 949 z "},"2":{"ha":757,"x_min":0,"x_max":0,"o":"m 407 513 l 290 511 l 254 511 b 42 322 158 507 75 428 l -69 -4 l 146 -4 l 146 -3 l 579 -3 l 579 46 l 163 46 l 249 297 b 390 464 290 438 339 449 l 694 464 l 868 968 l 717 968 l 718 969 l 419 969 b 238 874 354 969 258 946 l 146 610 l 197 610 l 279 846 b 401 921 297 896 357 921 l 597 921 b 500 782 554 888 517 839 z "},"3":{"ha":782,"x_min":0,"x_max":0,"o":"m 519 0 l 640 354 b 597 485 658 419 635 456 b 715 574 636 489 693 504 l 851 972 l 410 972 b 228 876 344 972 249 949 l 149 649 l 200 649 l 269 849 b 392 925 289 900 347 924 l 581 925 b 483 786 538 890 501 843 l 408 565 b 325 515 383 524 367 517 l 144 515 l 144 467 l 300 467 b 353 403 336 467 350 449 l 232 49 l -1 49 l 97 338 l 46 338 l -69 0 z "},"4":{"ha":700,"x_min":0,"x_max":0,"o":"m 161 0 l 465 0 l 797 972 l 638 972 b 429 786 561 968 461 890 l 306 421 l 54 421 l 244 972 l 193 972 l -14 371 l 38 371 l 38 372 l 289 372 z "},"5":{"ha":738,"x_min":0,"x_max":0,"o":"m 715 694 l 767 694 l 863 972 l 842 972 l 842 974 l 414 972 b 201 782 317 968 233 889 l 89 457 l 379 457 l 263 117 b 158 49 239 67 232 49 l -1 49 l 94 326 l 43 326 l -69 0 l 367 0 b 590 186 463 0 558 82 l 700 506 l 322 506 l 408 758 b 550 925 450 897 499 910 l 794 925 z "},"6":{"ha":810,"x_min":0,"x_max":0,"o":"m 811 924 l 731 694 l 782 694 l 879 972 l 407 972 b 199 786 331 968 231 890 l -69 0 l 386 0 b 403 -1 392 -1 397 -1 b 586 115 458 -1 549 24 l 719 506 l 408 506 l 500 775 b 703 924 543 881 622 924 z m 251 49 l 392 457 l 651 457 l 543 140 b 381 49 506 67 460 49 z "},"7":{"ha":694,"x_min":0,"x_max":0,"o":"m -14 0 l 321 0 l 792 972 l 635 972 b 618 969 629 971 624 971 l 622 974 l 324 974 b 142 876 258 974 163 949 l 60 640 l 111 640 l 183 850 b 306 925 201 900 261 924 l 507 925 b 393 786 465 894 426 849 z "},"8":{"ha":749,"x_min":0,"x_max":0,"o":"m 860 972 l 567 972 l 567 974 l 407 974 b 200 790 306 964 217 850 l 142 619 b 186 489 124 554 147 518 b 67 400 146 485 89 468 l -69 1 l 90 1 l 238 -1 l 238 0 l 369 0 b 568 115 456 0 535 29 l 663 393 b 642 481 675 442 664 458 b 722 569 678 482 703 513 z m 792 924 l 671 567 b 556 513 649 521 603 513 l 485 513 b 432 576 449 513 435 532 l 506 794 b 700 924 550 886 625 924 z m 254 49 l 376 413 b 461 464 401 456 418 463 l 550 464 b 615 406 588 464 622 443 l 525 142 b 364 50 488 67 443 50 z "},"9":{"ha":751,"x_min":0,"x_max":0,"o":"m 821 972 l 372 974 b 190 876 307 974 211 949 l 15 376 l 44 376 l 44 375 l 313 375 l 222 114 b 118 49 200 65 192 49 l -111 49 l -111 0 l 326 0 b 551 186 424 0 519 82 z m 83 424 l 232 850 b 354 925 250 900 310 925 l 549 925 b 454 789 494 882 467 822 l 329 424 z "}," ":{"ha":347,"x_min":0,"x_max":0,"o":""},"A":{"ha":878,"x_min":0,"x_max":0,"o":"m 671 0 l 1003 972 l 211 972 l 211 924 l 346 924 b 250 786 304 890 267 842 l -1 49 l -69 49 l -69 0 l 286 0 l 379 274 b 581 418 424 376 501 418 l 765 418 l 622 0 z m 446 467 l 554 783 b 753 924 597 883 675 924 l 938 924 l 782 467 z "},"B":{"ha":864,"x_min":0,"x_max":0,"o":"m 1003 974 l 211 974 l 211 925 l 346 925 b 250 788 304 890 267 843 l -1 50 l -69 50 l -69 1 l 533 1 b 708 117 610 1 688 57 l 768 290 b 763 436 785 349 782 401 b 863 561 800 456 838 497 z m 938 925 l 819 578 b 718 475 790 506 753 482 l 447 475 l 554 785 b 753 925 597 883 675 925 z m 689 199 b 486 50 646 93 606 50 l 303 50 l 385 292 b 582 426 429 386 506 426 l 690 426 l 699 424 b 718 283 746 410 739 361 z "},"C":{"ha":907,"x_min":0,"x_max":0,"o":"m 892 643 l 1004 972 l 211 972 l 211 924 l 346 924 b 250 786 304 890 267 842 l -1 49 l -69 49 l -69 0 l 671 0 l 765 275 l 717 275 l 636 42 l 301 44 l 554 783 b 753 924 597 883 675 924 l 939 924 l 843 643 z "},"D":{"ha":958,"x_min":0,"x_max":0,"o":"m 19 49 l -69 49 l -69 0 l 581 0 b 750 117 660 0 725 47 l 1042 972 l 232 972 l 232 924 l 367 924 b 271 786 325 890 288 842 z m 324 49 l 575 783 b 774 924 618 883 696 924 l 974 924 l 715 165 b 526 49 675 83 629 49 z "},"E":{"ha":894,"x_min":0,"x_max":0,"o":"m 938 924 l 851 674 l 903 674 l 1006 972 l 211 972 l 211 924 l 346 924 b 250 786 304 890 267 843 l -1 49 l -69 49 l -69 0 l 674 0 l 782 326 l 731 326 l 639 49 l 303 49 l 411 365 b 608 501 454 463 531 501 l 739 501 l 710 419 l 761 419 l 828 611 l 776 611 l 756 550 l 474 550 l 554 785 b 753 924 597 883 675 924 z "},"F":{"ha":894,"x_min":0,"x_max":0,"o":"m 782 319 l 861 550 l 474 550 l 554 783 b 753 924 597 883 675 924 l 938 924 l 851 674 l 903 674 l 1006 972 l 211 972 l 211 924 l 346 924 b 250 786 304 890 267 842 l -1 49 l -69 49 l -69 0 l 568 0 l 568 49 l 303 49 l 411 364 b 608 501 454 461 531 501 l 793 501 l 731 319 z "},"G":{"ha":931,"x_min":0,"x_max":0,"o":"m 960 924 l 881 694 l 932 694 l 1028 972 l 232 972 l 232 924 l 367 924 b 271 786 325 890 288 842 l 19 49 l -69 49 l -69 0 l 546 0 b 735 117 625 0 710 47 l 882 550 l 494 550 l 575 783 b 774 924 618 883 696 924 z m 324 49 l 432 364 b 629 501 475 461 551 501 l 814 501 l 708 190 b 508 49 667 90 632 49 z "},"H":{"ha":944,"x_min":0,"x_max":0,"o":"m 1042 924 l 1042 972 l 899 972 l 899 924 l 938 924 l 779 460 l 443 460 l 618 972 l 211 972 l 211 924 l 346 924 b 250 786 304 890 267 842 l 1 56 l -69 56 l -69 0 l 286 0 l 379 274 b 581 418 424 376 501 418 l 765 418 l 639 49 l 586 49 l 586 0 l 729 0 l 729 49 l 688 49 l 986 924 z "},"I":{"ha":569,"x_min":0,"x_max":0,"o":"m 19 49 l -69 49 l -69 0 l 307 0 l 639 972 l 232 972 l 232 924 l 367 924 b 271 786 325 890 288 842 z "},"J":{"ha":708,"x_min":0,"x_max":0,"o":"m 813 974 l 176 974 l 176 925 l 540 925 b 444 788 499 892 461 844 l 268 272 b 64 50 228 167 172 50 l -39 50 l 53 317 l 4 317 l -104 1 l 335 1 b 543 185 428 8 503 67 z "},"K":{"ha":1046,"x_min":0,"x_max":0,"o":"m 1011 972 l 800 972 l 800 924 l 899 924 l 463 457 l 639 972 l 232 972 l 232 924 l 367 924 b 271 786 325 890 288 842 l 19 49 l -69 49 l -69 0 l 307 0 l 457 438 l 588 118 b 772 0 621 44 668 4 l 949 0 l 764 446 l 519 446 z "},"L":{"ha":750,"x_min":0,"x_max":0,"o":"m 567 972 l 160 972 l 160 924 l 294 924 b 199 786 253 890 215 842 l -69 0 l 614 0 l 667 153 l 618 153 l 582 49 l 251 49 z "},"M":{"ha":1433,"x_min":0,"x_max":0,"o":"m 1246 0 l 1578 972 l 1115 972 b 942 889 1039 968 985 940 b 767 972 897 940 843 968 l 231 972 l 231 924 l 365 924 b 269 786 324 890 286 842 l 18 49 l -69 49 l -69 0 l 306 0 l 571 778 b 764 924 656 931 710 921 b 894 863 814 924 865 904 l 617 49 l 482 49 l 482 0 l 651 0 l 914 769 b 1118 924 958 868 1040 924 l 1257 924 l 958 49 l 786 49 l 786 0 z "},"N":{"ha":882,"x_min":0,"x_max":0,"o":"m 19 49 l -69 49 l -69 0 l 307 0 l 613 893 l 765 394 l 631 0 l 679 0 l 1011 972 l 963 972 l 792 474 l 639 972 l 232 972 l 232 924 l 367 924 b 271 786 325 890 288 843 z "},"O":{"ha":849,"x_min":0,"x_max":0,"o":"m 650 1 l 982 974 l 188 974 l 188 925 l 322 925 b 226 788 281 890 243 843 l -42 1 z m 615 50 l 279 50 l 531 785 b 729 925 574 883 651 925 l 914 925 z "},"P":{"ha":882,"x_min":0,"x_max":0,"o":"m 3 49 l -69 49 l -69 0 l 290 0 l 383 274 b 585 418 428 376 506 418 l 818 418 l 1007 972 l 215 972 l 215 924 l 350 924 b 254 786 308 890 271 842 z m 786 467 l 450 467 l 558 783 b 757 924 601 882 679 924 l 942 924 z "},"Q":{"ha":913,"x_min":0,"x_max":0,"o":"m 750 0 l 803 0 l 701 231 l 954 972 l 160 972 l 160 924 l 294 924 b 199 786 253 890 215 842 l -69 0 l 622 0 l 678 163 z m 588 49 l 251 49 l 503 783 b 701 924 546 883 624 924 l 886 924 l 672 296 l 594 471 l 542 471 l 649 228 z "},"R":{"ha":1035,"x_min":0,"x_max":0,"o":"m 882 415 l 1069 972 l 218 972 l 218 924 l 353 924 b 257 786 311 890 274 842 l 6 49 l -83 49 l -83 0 l 293 0 l 435 415 l 474 415 l 597 118 b 782 0 631 44 678 4 l 958 0 l 785 415 z m 1001 924 l 847 464 l 451 464 l 561 783 b 760 924 604 883 682 924 z "},"S":{"ha":881,"x_min":0,"x_max":0,"o":"m 883 694 l 978 972 l 351 972 b 143 786 275 968 175 890 l 39 479 l 531 479 l 431 185 b 233 49 388 89 311 49 l -32 49 l 58 321 l 10 321 l -97 0 l 549 0 b 713 119 619 0 699 79 l 850 528 l 360 528 l 447 785 b 646 924 492 883 568 924 l 913 924 l 835 694 z "},"T":{"ha":814,"x_min":0,"x_max":0,"o":"m 103 49 l 14 49 l 14 0 l 535 0 l 535 49 l 407 49 l 706 924 l 878 924 l 847 833 l 899 833 l 946 972 l 181 972 l 133 833 l 182 833 l 213 924 l 450 924 b 354 786 408 890 371 843 z "},"U":{"ha":853,"x_min":0,"x_max":0,"o":"m 621 49 l 251 49 l 567 972 l 160 972 l 160 924 l 294 924 b 199 786 253 890 215 842 l -69 0 l 656 0 l 988 972 l 850 972 l 850 924 l 919 924 z "},"V":{"ha":904,"x_min":0,"x_max":0,"o":"m 329 924 l 14 0 l 513 0 b 676 119 583 0 663 79 l 967 972 l 560 972 l 560 924 l 647 924 l 406 215 b 240 49 364 117 342 49 l 82 49 l 397 972 l 158 972 l 158 924 z "},"W":{"ha":1444,"x_min":0,"x_max":0,"o":"m 567 972 l 160 972 l 160 924 l 294 924 b 199 786 253 890 215 842 l -69 0 l 393 0 b 567 83 469 4 524 32 b 742 0 611 32 665 4 l 1031 0 b 1239 186 1107 4 1204 83 l 1507 972 l 1058 972 l 1058 924 l 1186 924 l 938 194 b 744 49 853 42 799 51 b 614 110 696 49 643 68 l 908 972 l 857 972 l 856 967 l 856 972 l 721 972 l 721 924 l 840 924 l 594 201 b 390 49 550 103 468 49 l 251 49 z "},"X":{"ha":928,"x_min":0,"x_max":0,"o":"m 739 49 l 622 49 l 622 0 l 833 0 l 581 390 l 893 972 l 481 972 l 481 924 l 631 924 b 525 786 589 888 550 838 l 457 669 l 276 972 l 158 972 l 158 924 l 231 924 l 414 596 l 94 49 l -58 49 l -58 0 l 371 0 l 550 333 z "},"Y":{"ha":722,"x_min":0,"x_max":0,"o":"m 269 975 l 125 972 l 125 924 l 167 925 l 281 329 l 185 49 l 69 49 l 69 0 l 472 0 l 804 972 l 415 972 l 415 924 l 532 924 b 436 786 490 890 453 843 l 314 429 l 219 926 l 269 926 z "},"Z":{"ha":842,"x_min":0,"x_max":0,"o":"m 210 924 l 549 924 b 421 786 504 894 460 850 l 1 0 l 706 0 l 753 139 l 704 139 l 672 49 l 363 49 l 822 972 l 178 972 l 131 833 l 179 833 z "},".":{"ha":253,"x_min":0,"x_max":0,"o":"m 163 206 l -35 206 l -90 0 l 107 0 z "},"a":{"ha":774,"x_min":0,"x_max":0,"o":"m 556 0 l 793 694 l 313 694 b 115 576 171 694 149 646 l 64 454 l 115 453 l 147 525 b 328 646 192 610 188 644 l 521 646 b 425 508 478 613 442 564 l 385 374 l 90 375 b -8 239 58 369 33 363 l -90 0 z m -22 49 l 42 235 b 163 325 74 318 94 325 l 369 324 l 289 49 z "},"b":{"ha":856,"x_min":0,"x_max":0,"o":"m 26 49 l -69 49 l -69 0 l 686 0 l 883 576 l 511 576 l 646 972 l 239 972 l 239 924 l 374 924 b 278 786 332 890 294 842 z m 331 49 l 454 410 b 646 535 499 497 572 535 l 818 535 l 651 49 z "},"c":{"ha":915,"x_min":0,"x_max":0,"o":"m 850 403 l 950 694 l 157 694 l 157 646 l 292 646 b 196 508 250 613 213 564 l 40 49 l -28 49 l -28 0 l 713 0 l 790 228 l 742 228 l 678 42 l 343 44 l 501 511 b 701 653 546 611 622 653 l 888 653 l 801 403 z "},"d":{"ha":953,"x_min":0,"x_max":0,"o":"m -28 0 l 785 0 l 785 49 l 679 49 l 994 972 l 588 972 l 588 924 l 722 924 b 626 786 681 890 643 842 l 556 576 l 274 576 b 132 467 233 572 150 524 z m 56 49 l 154 386 b 358 535 197 492 233 535 l 540 535 l 375 49 z "},"e":{"ha":864,"x_min":0,"x_max":0,"o":"m 721 176 l 672 176 l 626 42 l 292 46 l 328 150 b 528 293 371 251 449 293 l 761 293 l 899 694 l 124 694 l 124 646 l 240 646 b 144 508 199 613 161 564 l -28 0 l 661 0 z m 390 335 l 450 511 b 650 653 494 611 571 653 l 836 653 l 726 335 z "},"f":{"ha":715,"x_min":0,"x_max":0,"o":"m 818 924 l 818 972 l 422 972 b 214 786 346 968 246 890 l 167 646 l 78 646 l 78 597 l 150 597 l -37 49 l -106 49 l -106 0 l 369 0 l 369 49 l 267 49 l 454 597 l 553 597 l 553 646 l 471 646 l 518 783 b 717 924 561 883 639 924 z "},"g":{"ha":815,"x_min":0,"x_max":0,"o":"m -7 69 l 353 69 l 228 -299 l -139 -299 l -139 -347 l 515 -347 l 871 694 l 300 693 b 158 558 274 693 200 681 z m 63 118 l 192 504 b 411 653 244 635 267 653 l 607 653 b 503 508 561 619 521 568 l 369 118 z "},"h":{"ha":844,"x_min":0,"x_max":0,"o":"m 32 49 l -64 49 l -64 0 l 319 0 l 456 400 b 653 535 500 496 576 535 l 808 535 l 625 0 l 676 0 l 874 576 l 517 576 l 651 972 l 244 972 l 244 924 l 379 924 b 283 786 338 890 300 843 z "},"i":{"ha":536,"x_min":0,"x_max":0,"o":"m 257 757 l 561 757 l 633 968 l 474 968 b 265 782 397 964 300 885 z m 303 0 l 540 694 l 381 694 b 172 508 304 690 207 611 l 15 49 l -69 49 l -69 0 z "},"j":{"ha":711,"x_min":0,"x_max":0,"o":"m 432 758 l 736 758 l 808 969 l 649 969 b 440 783 572 965 475 886 z m -132 -86 l -222 -349 l 203 -349 b 411 -165 296 -342 369 -282 l 714 694 l 113 694 l 113 646 l 442 646 b 346 508 400 613 363 564 l 140 -78 l 142 -65 b -110 -300 100 -174 47 -300 l -157 -300 l -83 -86 z "},"k":{"ha":961,"x_min":0,"x_max":0,"o":"m 921 693 l 693 693 l 693 644 l 785 644 l 474 447 l 653 972 l 246 972 l 246 924 l 381 924 b 285 786 339 890 304 842 l 33 49 l -56 49 l -56 0 l 321 0 l 472 444 l 521 124 b 706 0 535 32 601 0 l 850 0 l 751 446 l 554 446 z "},"l":{"ha":606,"x_min":0,"x_max":0,"o":"m 647 972 l 199 972 l 199 924 l 375 924 b 279 786 333 890 296 842 l 28 49 l -56 49 l -56 0 l 439 0 l 439 49 l 332 49 z "},"m":{"ha":1456,"x_min":0,"x_max":0,"o":"m 1260 0 l 1497 694 l 1035 694 b 860 611 958 690 904 664 b 686 694 817 664 763 690 l 150 694 l 150 646 l 285 646 b 189 508 242 613 206 564 l 32 49 l -56 49 l -56 0 l 319 0 l 490 501 b 683 646 575 654 629 643 b 814 585 732 646 785 626 l 631 49 l 496 49 l 496 0 l 665 0 l 833 493 b 1038 646 878 592 960 646 l 1176 646 l 972 49 l 800 49 l 800 0 z "},"n":{"ha":833,"x_min":0,"x_max":0,"o":"m -56 0 l 319 0 l 492 506 b 692 646 536 606 613 646 l 835 646 l 614 0 l 665 0 l 903 694 l 150 694 l 150 646 l 285 646 b 189 508 243 613 206 564 l 32 49 l -56 49 z "},"o":{"ha":846,"x_min":0,"x_max":0,"o":"m 664 0 l 901 694 l 107 694 l 107 646 l 242 646 b 146 508 200 613 163 564 l -28 0 z m 629 49 l 293 49 l 449 506 b 649 646 493 606 569 646 l 833 646 z "},"p":{"ha":907,"x_min":0,"x_max":0,"o":"m -62 -299 l -135 -299 l -135 -347 l 225 -347 l 346 11 b 539 138 390 101 464 138 l 772 138 l 961 692 l 169 692 l 169 643 l 304 643 b 208 506 263 610 225 561 z m 406 186 l 514 508 b 711 643 558 604 635 643 l 896 643 l 740 186 z "},"q":{"ha":808,"x_min":0,"x_max":0,"o":"m 54 -299 l 54 -347 l 494 -347 l 850 694 l 279 693 b 138 557 254 693 179 681 l -28 68 l 25 69 l 332 69 l 207 -299 z m 349 118 l 40 118 l 163 482 b 406 647 207 628 249 644 l 583 650 b 482 508 539 617 500 567 z "},"r":{"ha":724,"x_min":0,"x_max":0,"o":"m 107 643 l 222 643 b 125 506 181 610 143 561 l -42 0 l 396 0 l 396 49 l 279 49 l 431 504 b 642 643 475 603 564 643 l 707 643 l 631 413 l 682 413 l 778 692 l 626 692 b 475 639 565 692 506 661 l 493 692 l 107 692 z "},"s":{"ha":838,"x_min":0,"x_max":0,"o":"m 814 501 l 879 694 l 308 694 b 100 508 232 690 132 613 l 47 339 l 483 339 l 436 194 b 235 49 393 90 315 49 l 24 49 l 72 193 l 24 193 l -42 0 l 531 0 b 739 186 607 4 707 82 l 800 388 l 364 388 l 408 522 b 599 646 453 610 525 646 l 814 646 l 765 501 z "},"t":{"ha":638,"x_min":0,"x_max":0,"o":"m 121 646 l 221 646 l 0 0 l 500 0 l 500 49 l 321 49 l 525 646 l 596 646 l 596 694 l 542 694 l 636 972 l 229 972 l 229 924 l 364 924 b 268 786 322 890 285 842 l 238 694 l 121 694 z "},"u":{"ha":879,"x_min":0,"x_max":0,"o":"m 279 49 l 500 694 l 149 694 l 149 646 l 228 646 b 132 508 186 613 149 564 l -42 0 l 683 0 l 921 694 l 783 694 l 783 646 l 853 646 l 649 49 z "},"v":{"ha":775,"x_min":0,"x_max":0,"o":"m -42 0 l 457 0 b 621 119 528 0 606 79 l 817 694 l 410 694 l 410 646 l 497 646 l 350 217 b 185 49 310 118 286 49 l 26 49 l 247 696 l 196 694 l 85 694 l 85 646 l 179 646 z "},"w":{"ha":1454,"x_min":0,"x_max":0,"o":"m 1019 646 l 1147 646 l 993 194 b 800 49 908 42 854 51 b 669 110 751 49 699 68 l 869 694 l 818 694 l 817 689 l 817 694 l 682 694 l 682 646 l 801 646 l 650 203 b 446 49 606 104 524 49 l 307 49 l 528 694 l 115 694 l 115 646 l 207 646 l -14 0 l 449 0 b 622 83 525 4 579 32 b 797 0 667 32 721 4 l 1086 0 b 1294 186 1163 4 1263 82 l 1468 694 l 1019 694 z "},"x":{"ha":792,"x_min":0,"x_max":0,"o":"m 546 322 l 742 694 l 329 694 l 329 646 l 479 646 b 374 508 438 610 399 560 l 358 482 l 207 694 l 81 694 l 81 646 l 176 646 l 328 432 l 103 49 l -44 49 l -44 0 l 378 0 l 517 268 l 631 49 l 503 49 l 503 0 l 722 0 z "},"y":{"ha":749,"x_min":0,"x_max":0,"o":"m 228 699 l 83 696 l 83 647 l 125 647 l 239 53 l 143 -228 l 28 -228 l 28 -276 l 431 -276 l 763 696 l 374 696 l 374 647 l 490 647 b 394 510 449 614 411 565 l 272 153 l 178 649 l 228 650 z "},"z":{"ha":806,"x_min":0,"x_max":0,"o":"m 142 649 l 456 649 b 328 511 411 619 367 575 l -56 0 l 653 0 l 700 139 l 651 139 l 621 49 l 333 49 l 750 697 l 110 697 l 63 558 l 111 558 z "},"¢":{"ha":915,"x_min":0,"x_max":0,"o":"m 850 546 l 950 838 l 640 838 l 669 922 l 621 922 l 592 838 l 443 838 b 196 651 300 838 215 707 l 22 143 l 386 143 l 356 54 l 404 54 l 435 143 l 713 143 l 790 371 l 742 371 l 678 185 l 343 188 l 501 654 b 701 796 546 754 622 796 l 888 796 l 801 546 z "},"$":{"ha":936,"x_min":0,"x_max":0,"o":"m 1006 972 l 658 972 l 682 1042 l 633 1042 l 610 972 l 379 972 b 171 786 303 968 206 889 l 67 479 l 558 479 l 458 185 b 261 49 415 89 339 49 l -4 49 l 86 321 l 38 321 l -69 0 l 318 0 l 297 -62 l 346 -62 l 367 0 l 576 0 b 740 119 647 0 726 79 l 878 528 l 388 528 l 475 785 b 674 924 510 888 596 924 l 940 924 l 863 694 l 911 694 z "},"€":{"ha":883,"x_min":0,"x_max":0,"o":"m 953 972 l 403 972 b 194 786 326 968 226 890 l 133 606 l 6 606 l 6 556 l 117 556 l 90 478 l -19 478 l -19 428 l 74 428 l -69 0 l 619 0 l 714 275 l 665 275 l 585 42 l 250 44 l 381 428 l 633 428 l 633 478 l 399 478 l 425 556 l 674 556 l 674 606 l 442 606 l 503 783 b 701 924 546 883 624 924 l 888 924 l 792 643 l 840 643 z "},"£":{"ha":874,"x_min":0,"x_max":0,"o":"m 522 972 b 300 786 386 972 317 843 l 204 504 l 81 504 l 81 454 l 188 454 l 49 49 l -69 49 l -69 0 l 657 0 l 656 49 l 353 49 l 492 454 l 631 454 l 631 504 l 508 504 l 604 785 b 803 924 647 883 725 924 l 875 924 l 828 788 l 879 788 l 943 972 z "},"¥":{"ha":833,"x_min":0,"x_max":0,"o":"m 638 972 b 436 786 514 967 453 843 l 314 429 l 208 972 l 156 971 l 276 351 l 143 351 l 143 303 l 272 303 l 168 0 l 472 0 l 575 303 l 693 303 l 693 351 l 592 351 l 804 972 z "},",":{"ha":269,"x_min":0,"x_max":0,"o":"m -11 206 l -90 -87 l -40 -87 b 147 64 51 -87 118 -42 l 186 206 z "},"-":{"ha":679,"x_min":0,"x_max":0,"o":"m 540 461 l 69 461 l 69 336 l 540 336 z "},"+":{"ha":943,"x_min":0,"x_max":0,"o":"m 401 543 l 139 543 l 139 418 l 361 418 l 265 118 l 397 118 l 493 418 l 804 418 l 804 543 l 532 543 l 629 843 l 568 843 b 463 732 529 840 488 803 z "},"*":{"ha":572,"x_min":0,"x_max":0,"o":"m 579 532 l 642 640 l 535 701 l 642 763 l 579 871 l 472 808 l 472 933 l 347 933 l 347 808 l 239 871 l 176 763 l 283 701 l 176 640 l 239 532 l 347 593 l 347 469 l 472 469 l 472 593 z "},"^":{"ha":679,"x_min":0,"x_max":0,"o":"m 336 865 l 475 589 b 636 428 513 493 582 431 l 665 428 l 421 1000 l 250 1000 l 14 428 l 43 428 b 204 589 97 431 168 493 z "},"˜":{"ha":758,"x_min":0,"x_max":0,"o":"m 358 1083 b 183 1132 304 1117 243 1132 b 0 1083 119 1132 56 1114 l 0 958 b 169 1003 58 989 114 1003 b 358 958 232 1003 294 985 b 533 910 413 925 474 910 b 717 958 597 910 661 926 l 717 1083 b 549 1039 660 1051 603 1039 b 358 1083 485 1039 422 1056 z "},"/":{"ha":531,"x_min":0,"x_max":0,"o":"m -4 -240 l 128 -240 l 564 1042 l 432 1042 z "},"\\":{"ha":776,"x_min":0,"x_max":0,"o":"m 707 -239 l 271 1043 l 139 1043 l 575 -239 z "},":":{"ha":424,"x_min":0,"x_max":0,"o":"m 382 710 l 185 710 l 129 504 l 326 504 z m 294 386 l 97 386 l 42 181 l 239 181 z "},";":{"ha":446,"x_min":0,"x_max":0,"o":"m 404 710 l 207 710 l 151 504 l 349 504 z m 121 386 l 42 93 l 92 93 b 279 244 183 93 250 139 l 318 386 z "},"<":{"ha":1011,"x_min":0,"x_max":0,"o":"m 318 461 l 701 596 b 863 758 797 633 860 703 b 863 786 863 769 874 790 b 183 546 594 703 449 640 l 183 375 l 864 136 l 864 164 b 701 325 860 218 797 289 z "},"=":{"ha":1001,"x_min":0,"x_max":0,"o":"m 97 544 l 904 544 l 904 669 l 97 669 z m 904 371 l 97 371 l 97 246 l 904 246 z "},">":{"ha":1011,"x_min":0,"x_max":0,"o":"m 169 136 l 850 375 l 850 546 b 171 786 585 640 439 703 b 171 758 160 790 171 769 b 332 596 174 703 236 633 l 715 461 l 331 325 b 169 164 236 289 174 218 z "},"!":{"ha":525,"x_min":0,"x_max":0,"o":"m 50 267 l 354 267 l 594 972 l 435 972 b 226 786 358 968 258 890 z m 26 201 l -42 0 l 263 0 l 333 201 z "},"?":{"ha":729,"x_min":0,"x_max":0,"o":"m 407 515 l 254 515 b 42 325 158 511 75 432 l -4 194 l 213 194 l 249 301 b 390 467 290 440 339 451 l 694 467 l 868 972 l 419 972 b 238 876 354 972 258 949 l 146 613 l 197 613 l 279 849 b 401 925 297 900 357 924 l 597 924 b 500 786 554 890 517 842 z m -69 0 l 146 0 l 190 133 l -25 133 z "},"'":{"ha":276,"x_min":0,"x_max":0,"o":"m 149 1042 l 69 749 l 119 749 b 307 900 211 749 278 794 l 346 1042 z "},"\"":{"ha":564,"x_min":0,"x_max":0,"o":"m 204 1042 l 125 749 l 175 749 b 363 900 267 749 333 794 l 401 1042 z m 478 1042 l 400 749 l 450 749 b 636 900 542 749 607 794 l 675 1042 z "},"#":{"ha":1050,"x_min":0,"x_max":0,"o":"m 957 972 l 838 636 l 550 636 l 664 972 l 504 972 b 296 786 428 968 328 890 l 246 636 l 110 636 l 110 588 l 229 588 l 140 326 l 36 326 l 36 278 l 124 278 l 28 0 l 332 0 l 428 278 l 711 278 l 613 0 l 664 0 l 763 278 l 911 278 l 911 326 l 779 326 l 872 588 l 985 588 l 985 636 l 889 636 l 1008 972 z m 728 326 l 444 326 l 533 588 l 821 588 z "},"@":{"ha":946,"x_min":0,"x_max":0,"o":"m 467 264 l 392 264 l 518 629 l 482 631 l 378 631 b 231 499 321 625 247 564 l 133 215 l 754 215 l 1015 972 l 418 972 b 236 876 353 972 257 949 l -69 0 l 689 0 l 689 49 l -1 49 l 278 849 b 400 925 296 900 356 924 l 744 924 b 647 786 701 890 664 842 z m 340 264 l 201 264 l 281 496 b 396 582 297 543 346 575 l 450 582 z "},"%":{"ha":813,"x_min":0,"x_max":0,"o":"m 764 972 l -28 0 l 33 0 l 826 972 z m 176 972 l 85 703 l 244 703 b 453 889 321 707 421 785 l 481 972 z m 347 -3 l 651 -3 l 743 268 l 583 268 b 375 82 507 264 407 186 z "},"&":{"ha":954,"x_min":0,"x_max":0,"o":"m 728 188 l 821 458 l 769 458 l 692 233 l 488 483 b 472 610 457 522 458 542 l 532 789 b 729 922 576 883 651 922 l 928 922 l 858 721 l 910 721 l 996 971 l 594 971 l 594 972 l 435 972 b 228 789 332 964 244 849 l 169 618 b 214 488 151 553 175 517 b 94 399 174 483 117 467 l -42 0 l 504 -1 b 703 114 590 -1 669 28 l 710 135 l 821 -1 l 882 -1 z m 281 47 l 394 382 b 447 436 411 419 429 436 b 471 426 456 436 464 433 l 674 179 l 660 140 b 499 49 624 65 576 49 z "},"(":{"ha":476,"x_min":0,"x_max":0,"o":"m 276 -83 l 276 -35 l 79 -35 l 374 865 b 431 924 386 906 406 919 l 546 928 l 546 972 l 426 972 b 221 806 321 972 253 903 l -69 -83 z "},")":{"ha":474,"x_min":0,"x_max":0,"o":"m 271 972 l 271 924 l 374 924 b 426 865 410 921 433 900 l 151 24 l 132 -35 l -68 -35 l -69 -83 l 250 -83 l 536 794 b 419 972 565 885 496 972 z "},"{":{"ha":532,"x_min":0,"x_max":0,"o":"m -69 -94 l 301 -94 l 301 -44 l 79 -44 l 207 347 l 175 453 l 275 554 l 396 924 l 600 924 l 601 972 l 286 972 l 154 578 l 51 465 l 83 364 z "},"}":{"ha":550,"x_min":0,"x_max":0,"o":"m 619 972 l 267 972 l 267 922 l 471 922 l 358 578 l 393 460 l 289 368 l 154 -46 l -68 -46 l -69 -94 l 264 -94 l 411 346 l 518 446 l 481 554 z "},"[":{"ha":532,"x_min":0,"x_max":0,"o":"m -69 -94 l 301 -94 l 301 -44 l 79 -44 l 396 924 l 600 924 l 601 972 l 286 972 z "},"]":{"ha":550,"x_min":0,"x_max":0,"o":"m 619 972 l 267 972 l 267 922 l 471 922 l 154 -46 l -68 -46 l -69 -94 l 264 -94 z "},"|":{"ha":218,"x_min":0,"x_max":0,"o":"m 71 1032 l 71 -111 l 119 -111 l 119 1032 z "},"_":{"ha":769,"x_min":0,"x_max":0,"o":"m 631 -107 l -125 -107 l -125 -232 l 631 -232 z "},"–":{"ha":758,"x_min":0,"x_max":0,"o":"m 758 500 l 3 500 l 3 375 l 758 375 z "},"~":{"ha":758,"x_min":0,"x_max":0,"o":"m 379 511 b 204 560 325 544 264 560 b 21 511 140 560 76 542 l 21 386 b 190 431 79 417 135 431 b 379 386 253 431 315 413 b 554 338 433 353 494 338 b 738 386 618 338 682 354 l 738 511 b 569 467 681 479 624 467 b 379 511 506 467 443 483 z "},"’":{"ha":293,"x_min":0,"x_max":0,"o":"m 83 1042 l 6 749 l 56 749 b 242 900 147 749 213 794 l 281 1042 z "},"‘":{"ha":293,"x_min":0,"x_max":0,"o":"m 203 1042 l 6 1042 l 43 900 b 231 749 72 794 139 749 l 281 749 z "},"•":{"ha":392,"x_min":0,"x_max":0,"o":"m 354 650 l 81 650 l 3 364 l 278 364 z "},"“":{"ha":557,"x_min":0,"x_max":0,"o":"m 206 1042 l 8 1042 l 47 900 b 233 749 76 794 142 749 l 283 749 z m 479 1042 l 282 1042 l 321 900 b 508 749 350 794 417 749 l 558 749 z "},"”":{"ha":557,"x_min":0,"x_max":0,"o":"m 88 1042 l 8 749 l 58 749 b 246 900 150 749 217 794 l 285 1042 z m 361 1042 l 283 749 l 333 749 b 519 900 425 749 490 794 l 558 1042 z "},"‚":{"ha":293,"x_min":0,"x_max":0,"o":"m 75 206 l -4 -87 l 46 -87 b 233 64 138 -87 204 -42 l 272 206 z "},"„":{"ha":551,"x_min":0,"x_max":0,"o":"m 106 206 l 26 -87 l 76 -87 b 264 64 168 -87 235 -42 l 303 206 z m 371 206 l 292 -87 l 342 -87 b 529 64 433 -87 500 -42 l 568 206 z "},"—":{"ha":1263,"x_min":0,"x_max":0,"o":"m 1263 500 l 3 500 l 3 375 l 1263 375 z "},"¯":{"ha":758,"x_min":0,"x_max":0,"o":"m 758 1219 l 3 1219 l 3 1094 l 758 1094 z "},"¬":{"ha":1011,"x_min":0,"x_max":0,"o":"m 133 500 l 133 375 l 764 375 l 764 0 l 889 0 l 889 500 z "},"®":{"ha":1290,"x_min":0,"x_max":0,"o":"m 486 974 l 486 972 l 432 972 b 224 786 356 968 256 890 l 78 351 l -42 1 l -40 1 l -40 0 l 264 0 l 264 1 l 958 1 l 1290 974 z m 388 365 l 531 785 b 729 925 574 883 651 925 l 1222 925 l 924 50 l 281 50 z m 981 696 l 588 696 l 588 674 l 650 674 b 606 610 631 658 614 635 l 490 271 l 449 271 l 449 247 l 622 247 l 688 439 l 706 439 l 763 303 b 849 247 778 269 800 249 l 929 247 l 849 439 l 894 439 z m 746 608 b 838 674 765 654 801 674 l 949 674 l 878 461 l 696 461 z "},"™":{"ha":2192,"x_min":0,"x_max":0,"o":"m 47 49 l -42 49 l -42 0 l 479 0 l 479 49 l 351 49 l 650 924 l 822 924 l 792 833 l 843 833 l 890 972 l 125 972 l 78 833 l 126 833 l 157 924 l 394 924 b 299 786 353 890 315 843 z m 2004 0 l 2336 972 l 1874 972 b 1700 889 1797 968 1743 940 b 1525 972 1656 940 1601 968 l 989 972 l 989 924 l 1124 924 b 1028 786 1082 890 1044 842 l 776 49 l 689 49 l 689 0 l 1064 0 l 1329 778 b 1522 924 1414 931 1468 921 b 1653 863 1572 924 1624 904 l 1375 49 l 1240 49 l 1240 0 l 1410 0 l 1672 769 b 1876 924 1717 868 1799 924 l 2015 924 l 1717 49 l 1544 49 l 1544 0 z "},"©":{"ha":1179,"x_min":0,"x_max":0,"o":"m 458 974 l 458 972 l 404 972 b 196 786 328 968 228 890 l 50 351 l -69 1 l -68 1 l -68 0 l 236 0 l 236 1 l 931 1 l 1263 974 z m 360 365 l 503 785 b 701 925 546 883 624 925 l 1194 925 l 896 50 l 253 50 z m 954 688 l 704 688 b 610 603 669 686 624 650 l 489 246 l 803 246 l 846 371 l 824 371 l 788 265 l 635 267 l 750 601 b 840 665 769 647 806 665 l 925 665 l 881 539 l 903 539 z "},"ƒ":{"ha":604,"x_min":0,"x_max":0,"o":"m 868 924 l 868 972 l 472 972 b 264 786 396 968 296 890 l 217 646 l 128 646 l 128 597 l 200 597 l 13 49 l -56 49 l -56 0 l 419 0 l 419 49 l 317 49 l 504 597 l 603 597 l 603 646 l 521 646 l 568 783 b 767 924 611 883 689 924 z "},"−":{"ha":1011,"x_min":0,"x_max":0,"o":"m 758 500 l 3 500 l 3 375 l 758 375 z "},"±":{"ha":1011,"x_min":0,"x_max":0,"o":"m 839 621 l 567 621 l 664 921 l 603 921 b 497 810 564 918 522 881 l 436 621 l 174 621 l 174 496 l 396 496 l 300 197 l 83 197 l 83 72 l 778 72 l 778 197 l 432 197 l 528 496 l 839 496 z "},"×":{"ha":1011,"x_min":0,"x_max":0,"o":"m 826 768 l 578 519 l 329 768 l 240 679 l 489 432 l 240 183 l 329 94 l 578 343 l 826 94 l 914 183 l 667 432 l 914 679 z "},"¦":{"ha":531,"x_min":0,"x_max":0,"o":"m 363 1033 l 363 531 l 411 531 l 411 1033 z m 363 393 l 363 -111 l 411 -111 l 411 393 z "},"¿":{"ha":650,"x_min":0,"x_max":0,"o":"m 868 972 l 653 972 l 608 839 l 824 839 z m 392 457 l 544 457 b 757 647 640 461 724 540 l 803 778 l 586 778 l 550 671 b 408 506 508 532 460 521 l 104 506 l -69 0 l 379 0 b 561 96 444 0 540 24 l 653 360 l 601 360 l 519 124 b 397 47 501 72 442 49 l 201 49 b 299 186 244 82 282 131 z "},"¡":{"ha":525,"x_min":0,"x_max":0,"o":"m 526 771 l 594 972 l 290 972 l 219 771 z m 503 706 l 199 706 l -42 0 l 118 0 b 326 186 194 4 294 82 z "},"°":{"ha":654,"x_min":0,"x_max":0,"o":"m 506 543 l 672 1010 l 299 1010 b 144 885 236 1004 168 963 l 24 543 z m 482 575 l 247 575 l 356 883 b 496 978 386 950 440 978 l 624 978 z "},"ª":{"ha":760,"x_min":0,"x_max":0,"o":"m 578 0 l 815 694 l 335 694 b 138 576 193 694 171 646 l 86 454 l 138 453 l 169 525 b 350 646 214 610 210 644 l 543 646 b 447 508 500 613 464 564 l 407 374 l 113 375 b 14 239 81 369 56 363 l -68 0 z m 0 49 l 64 235 b 185 325 96 318 117 325 l 392 324 l 311 49 z "},"º":{"ha":846,"x_min":0,"x_max":0,"o":"m 664 0 l 901 694 l 107 694 l 107 646 l 242 646 b 146 508 200 613 163 564 l -28 0 z m 629 49 l 293 49 l 449 506 b 649 646 493 606 569 646 l 833 646 z "},"¹":{"ha":511,"x_min":0,"x_max":0,"o":"m 132 813 l 183 813 l 196 849 b 318 925 214 899 274 924 l 351 925 b 254 786 308 890 272 842 l -14 0 l 290 0 l 622 972 l 336 972 b 154 876 271 972 175 949 z "},"²":{"ha":757,"x_min":0,"x_max":0,"o":"m 407 513 l 290 511 l 254 511 b 42 322 158 507 75 428 l -69 -4 l 146 -4 l 146 -3 l 579 -3 l 579 46 l 163 46 l 249 297 b 390 464 290 438 339 449 l 694 464 l 868 968 l 717 968 l 718 969 l 419 969 b 238 874 354 969 258 946 l 146 610 l 197 610 l 279 846 b 401 921 297 896 357 921 l 597 921 b 500 782 554 888 517 839 z "},"³":{"ha":782,"x_min":0,"x_max":0,"o":"m 519 0 l 640 354 b 597 485 658 419 635 456 b 715 574 636 489 693 504 l 851 972 l 410 972 b 228 876 344 972 249 949 l 149 649 l 200 649 l 269 849 b 392 925 289 900 347 924 l 581 925 b 483 786 538 890 501 843 l 408 565 b 325 515 383 524 367 517 l 144 515 l 144 467 l 300 467 b 353 403 336 467 350 449 l 232 49 l -1 49 l 97 338 l 46 338 l -69 0 z "},"⁄":{"ha":347,"x_min":0,"x_max":0,"o":"m -117 38 l 15 38 l 451 1319 l 319 1319 z "},"‹":{"ha":532,"x_min":0,"x_max":0,"o":"m 207 458 l 425 561 b 515 685 479 590 514 642 b 515 707 515 693 522 710 b 131 524 363 643 282 596 l 131 393 l 517 210 l 517 232 b 425 354 514 274 479 326 z "},"›":{"ha":532,"x_min":0,"x_max":0,"o":"m 228 354 b 136 232 174 326 139 274 l 136 210 l 522 393 l 522 524 b 136 707 371 596 289 643 b 136 685 129 710 136 693 b 228 561 138 642 174 590 l 446 458 z "},"«":{"ha":796,"x_min":0,"x_max":0,"o":"m 207 458 l 425 561 b 515 685 479 590 514 642 b 515 707 515 693 522 710 b 131 524 363 643 282 596 l 131 393 l 517 210 l 517 232 b 425 354 514 274 479 326 z m 574 458 l 792 561 b 883 685 846 590 882 642 b 883 706 883 693 890 708 b 497 522 731 642 649 594 l 497 392 l 885 210 l 885 231 b 792 354 882 272 846 326 z "},"»":{"ha":796,"x_min":0,"x_max":0,"o":"m 596 354 b 503 232 542 326 506 274 l 503 210 l 890 393 l 890 524 b 504 707 739 596 657 643 b 504 685 497 710 504 693 b 596 561 506 642 542 590 l 814 458 z m 228 354 b 136 231 174 326 139 272 l 136 210 l 522 392 l 522 522 b 136 706 371 594 289 642 b 136 685 129 708 136 693 b 228 561 138 642 174 590 l 446 458 z "},"˝":{"ha":758,"x_min":0,"x_max":0,"o":"m 232 1114 l 153 821 l 203 821 b 390 972 294 821 361 867 l 429 1114 z m 506 1114 l 428 821 l 478 821 b 664 972 569 821 635 867 l 703 1114 z "},"·":{"ha":492,"x_min":0,"x_max":0,"o":"m 417 749 l 219 749 l 164 543 l 361 543 z "},"…":{"ha":800,"x_min":0,"x_max":0,"o":"m 183 206 l -14 206 l -69 0 l 128 0 z m 450 206 l 253 206 l 197 0 l 394 0 z m 717 206 l 519 206 l 464 0 l 661 0 z "},"÷":{"ha":424,"x_min":0,"x_max":0,"o":"m 185 710 l 129 504 l 326 504 l 382 710 z m -167 500 l -167 375 l 94 375 l 42 181 l 239 181 l 292 375 l 589 375 l 589 500 z "},"‡":{"ha":347,"x_min":0,"x_max":0,"o":"m 576 669 l 199 669 l 199 1032 l 150 1032 l 150 669 l -231 669 l -231 544 l 150 544 l 150 371 l -231 371 l -231 246 l 150 246 l 150 -111 l 199 -111 l 199 246 l 576 246 l 576 371 l 199 371 l 199 544 l 576 544 z "},"†":{"ha":347,"x_min":0,"x_max":0,"o":"m 199 461 l 199 1032 l 150 1032 l 150 461 l -62 461 l -62 336 l 150 336 l 150 -111 l 199 -111 l 199 336 l 408 336 l 408 461 z "},"˚":{"ha":758,"x_min":0,"x_max":0,"o":"m 847 771 l 982 1150 l 681 1150 b 556 1049 629 1146 575 1113 l 457 771 z m 828 797 l 639 797 l 726 1047 b 839 1124 751 1101 794 1124 l 943 1124 z "},"˙":{"ha":758,"x_min":0,"x_max":0,"o":"m 632 1003 l 467 1003 l 421 832 l 585 832 z "},"ˇ":{"ha":758,"x_min":0,"x_max":0,"o":"m 453 925 l 350 1103 b 225 1178 321 1147 268 1176 b 204 1178 217 1178 201 1183 b 388 863 268 1054 315 985 l 518 863 l 700 1178 l 679 1178 b 556 1103 638 1176 583 1147 z "},"ı":{"ha":564,"x_min":0,"x_max":0,"o":"m 285 757 l 589 757 l 661 968 l 501 968 b 293 782 425 964 328 885 z m 331 0 l 568 694 l 408 694 b 200 508 332 690 235 611 l 43 49 l -42 49 l -42 0 z "},"ˆ":{"ha":758,"x_min":0,"x_max":0,"o":"m 556 943 b 679 868 583 899 638 869 l 700 868 l 518 1182 l 388 1182 b 204 868 315 1060 268 992 b 225 868 201 863 217 868 b 350 943 268 869 321 899 l 453 1121 z "},"`":{"ha":758,"x_min":0,"x_max":0,"o":"m 644 1118 l 447 1118 l 485 976 b 672 825 514 871 581 825 l 722 825 z "},"¨":{"ha":758,"x_min":0,"x_max":0,"o":"m 660 1031 l 515 1031 l 475 881 l 619 881 z m 907 1029 l 764 1029 l 724 881 l 867 881 z "},"´":{"ha":758,"x_min":0,"x_max":0,"o":"m 653 1118 l 575 825 l 625 825 b 813 976 717 825 783 871 l 850 1118 z "},"¸":{"ha":758,"x_min":0,"x_max":0,"o":""},"ﬁ":{"ha":1168,"x_min":0,"x_max":0,"o":"m 868 924 l 868 972 l 472 972 b 264 786 396 968 296 890 l 217 646 l 128 646 l 128 597 l 200 597 l 13 49 l -56 49 l -56 0 l 419 0 l 419 49 l 317 49 l 504 597 l 603 597 l 603 646 l 521 646 l 568 783 b 767 924 611 883 689 924 z m 889 757 l 1193 757 l 1265 968 l 1106 968 b 897 782 1029 964 932 885 z m 935 0 l 1172 694 l 1013 694 b 804 508 936 690 839 611 l 647 49 l 563 49 l 563 0 z "},"ﬂ":{"ha":1217,"x_min":0,"x_max":0,"o":"m 1258 972 l 472 972 b 264 786 396 968 296 890 l 217 646 l 128 646 l 128 597 l 200 597 l 13 49 l -56 49 l -56 0 l 419 0 l 419 49 l 317 49 l 504 597 l 603 597 l 603 646 l 521 646 l 568 783 b 767 924 611 883 689 924 l 986 924 b 890 786 944 890 907 842 l 639 49 l 556 49 l 556 0 l 1050 0 l 1050 49 l 943 49 z "},"À":{"ha":878,"x_min":0,"x_max":0,"o":"m 619 1396 l 422 1396 l 460 1254 b 647 1103 489 1149 556 1103 l 697 1103 z m 671 0 l 1003 972 l 211 972 l 211 924 l 346 924 b 250 786 304 890 267 842 l -1 49 l -69 49 l -69 0 l 286 0 l 379 274 b 581 418 424 376 501 418 l 765 418 l 622 0 z m 446 467 l 554 783 b 753 924 597 883 675 924 l 938 924 l 782 467 z "},"Á":{"ha":878,"x_min":0,"x_max":0,"o":"m 628 1396 l 550 1103 l 600 1103 b 788 1254 692 1103 758 1149 l 825 1396 z m 671 0 l 1003 972 l 211 972 l 211 924 l 346 924 b 250 786 304 890 267 842 l -1 49 l -69 49 l -69 0 l 286 0 l 379 274 b 581 418 424 376 501 418 l 765 418 l 622 0 z m 446 467 l 554 783 b 753 924 597 883 675 924 l 938 924 l 782 467 z "},"Â":{"ha":878,"x_min":0,"x_max":0,"o":"m 817 1157 b 940 1082 844 1113 899 1083 l 961 1082 l 779 1396 l 649 1396 b 465 1082 576 1274 529 1206 b 486 1082 463 1076 478 1082 b 611 1157 529 1083 582 1113 l 714 1335 z m 671 0 l 1003 972 l 211 972 l 211 924 l 346 924 b 250 786 304 890 269 842 l -1 49 l -69 49 l -69 0 l 286 0 l 379 274 b 581 418 424 376 501 418 l 765 418 l 622 0 z m 446 467 l 554 783 b 753 924 597 883 675 924 l 938 924 l 782 467 z "},"Ä":{"ha":878,"x_min":0,"x_max":0,"o":"m 656 1308 l 511 1308 l 471 1158 l 615 1158 z m 903 1307 l 760 1307 l 719 1158 l 863 1158 z m 671 0 l 1003 972 l 211 972 l 211 924 l 346 924 b 250 786 304 890 267 842 l -1 49 l -69 49 l -69 0 l 286 0 l 379 274 b 581 418 424 376 501 418 l 765 418 l 622 0 z m 446 467 l 554 783 b 753 924 597 883 675 924 l 938 924 l 782 467 z "},"Ã":{"ha":878,"x_min":0,"x_max":0,"o":"m 706 1264 b 531 1313 651 1297 590 1313 b 347 1264 467 1313 403 1294 l 347 1139 b 517 1183 406 1169 461 1183 b 706 1139 579 1183 642 1165 b 881 1090 760 1106 821 1090 b 1064 1139 944 1090 1008 1107 l 1064 1264 b 896 1219 1007 1232 950 1219 b 706 1264 832 1219 769 1236 z m 671 0 l 1003 972 l 211 972 l 211 924 l 346 924 b 250 786 304 890 269 842 l -1 49 l -69 49 l -69 0 l 286 0 l 379 274 b 581 418 424 376 501 418 l 765 418 l 622 0 z m 446 467 l 554 783 b 753 924 597 883 675 924 l 938 924 l 782 467 z "},"Å":{"ha":878,"x_min":0,"x_max":0,"o":"m 822 1049 l 957 1428 l 656 1428 b 531 1326 604 1424 550 1390 l 432 1049 z m 803 1075 l 614 1075 l 701 1325 b 814 1401 726 1379 769 1401 l 918 1401 z m 671 0 l 1003 972 l 211 972 l 211 924 l 346 924 b 250 786 304 890 267 842 l -1 49 l -69 49 l -69 0 l 286 0 l 379 274 b 581 418 424 376 501 418 l 765 418 l 622 0 z m 446 467 l 554 783 b 753 924 597 883 675 924 l 938 924 l 782 467 z "},"Æ":{"ha":1772,"x_min":0,"x_max":0,"o":"m 671 0 l 1003 972 l 211 972 l 211 924 l 346 924 b 250 786 304 890 267 842 l -1 49 l -69 49 l -69 0 l 286 0 l 379 274 b 581 418 424 376 501 418 l 765 418 l 622 0 z m 1815 924 l 1729 674 l 1781 674 l 1883 972 l 1089 972 l 1089 924 l 1224 924 b 1128 786 1182 890 1144 843 l 876 49 l 808 49 l 808 0 l 1551 0 l 1660 326 l 1608 326 l 1517 49 l 1181 49 l 1289 365 b 1486 501 1332 463 1408 501 l 1617 501 l 1588 419 l 1639 419 l 1706 611 l 1654 611 l 1633 550 l 1351 550 l 1432 785 b 1631 924 1475 883 1553 924 z m 446 467 l 554 783 b 753 924 597 883 675 924 l 938 924 l 782 467 z "},"Đ":{"ha":958,"x_min":0,"x_max":0,"o":"m 232 924 l 367 924 b 271 786 325 890 288 842 l 183 531 l -139 531 l -139 406 l 142 406 l 19 49 l -69 49 l -69 0 l 581 0 b 750 117 660 0 725 47 l 1042 972 l 232 972 z m 715 165 b 526 49 675 83 629 49 l 324 49 l 575 783 b 774 924 618 883 696 924 l 974 924 z "},"Ð":{"ha":958,"x_min":0,"x_max":0,"o":"m 232 924 l 367 924 b 271 786 325 890 288 842 l 183 531 l -139 531 l -139 406 l 142 406 l 19 49 l -69 49 l -69 0 l 581 0 b 750 117 660 0 725 47 l 1042 972 l 232 972 z m 715 165 b 526 49 675 83 629 49 l 324 49 l 575 783 b 774 924 618 883 696 924 l 974 924 z "},"È":{"ha":894,"x_min":0,"x_max":0,"o":"m 557 1396 l 360 1396 l 397 1254 b 585 1103 426 1149 493 1103 l 635 1103 z m 938 924 l 851 674 l 903 674 l 1006 972 l 211 972 l 211 924 l 346 924 b 250 786 304 890 267 843 l -1 49 l -69 49 l -69 0 l 674 0 l 782 326 l 731 326 l 639 49 l 303 49 l 411 365 b 608 501 454 463 531 501 l 739 501 l 710 419 l 761 419 l 828 611 l 776 611 l 756 550 l 474 550 l 554 785 b 753 924 597 883 675 924 z "},"É":{"ha":894,"x_min":0,"x_max":0,"o":"m 593 1396 l 515 1103 l 565 1103 b 753 1254 657 1103 724 1149 l 790 1396 z m 938 924 l 851 674 l 903 674 l 1006 972 l 211 972 l 211 924 l 346 924 b 250 786 304 890 267 843 l -1 49 l -69 49 l -69 0 l 674 0 l 782 326 l 731 326 l 639 49 l 303 49 l 411 365 b 608 501 454 463 531 501 l 739 501 l 710 419 l 761 419 l 828 611 l 776 611 l 756 550 l 474 550 l 554 785 b 753 924 597 883 675 924 z "},"Ê":{"ha":894,"x_min":0,"x_max":0,"o":"m 736 1175 b 860 1100 764 1131 818 1101 l 881 1100 l 699 1414 l 568 1414 b 385 1100 496 1292 449 1224 b 406 1100 382 1094 397 1100 b 531 1175 449 1101 501 1131 l 633 1353 z m 938 924 l 851 674 l 903 674 l 1006 972 l 211 972 l 211 924 l 346 924 b 250 786 304 890 267 843 l -1 49 l -69 49 l -69 0 l 674 0 l 782 326 l 731 326 l 639 49 l 303 49 l 411 365 b 608 501 454 463 531 501 l 739 501 l 710 419 l 761 419 l 828 611 l 776 611 l 756 550 l 474 550 l 554 785 b 753 924 597 883 675 924 z "},"˘":{"ha":758,"x_min":0,"x_max":0,"o":""},"Ç":{"ha":907,"x_min":0,"x_max":0,"o":"m 892 643 l 1004 972 l 211 972 l 211 924 l 346 924 b 250 786 304 890 267 842 l -1 49 l -69 49 l -69 0 l 671 0 l 765 275 l 717 275 l 636 42 l 301 44 l 554 783 b 753 924 597 883 675 924 l 939 924 l 843 643 z "},"Ë":{"ha":894,"x_min":0,"x_max":0,"o":"m 415 1308 l 271 1308 l 231 1158 l 375 1158 z m 663 1307 l 519 1307 l 479 1158 l 622 1158 z m 938 924 l 851 674 l 903 674 l 1006 972 l 211 972 l 211 924 l 346 924 b 250 786 304 890 267 843 l -1 49 l -69 49 l -69 0 l 674 0 l 782 326 l 731 326 l 639 49 l 303 49 l 411 365 b 608 501 454 463 531 501 l 739 501 l 710 419 l 761 419 l 828 611 l 776 611 l 756 550 l 474 550 l 554 785 b 753 924 597 883 675 924 z "},"Ì":{"ha":569,"x_min":0,"x_max":0,"o":"m 467 1396 l 269 1396 l 307 1254 b 494 1103 336 1149 403 1103 l 544 1103 z m 19 49 l -69 49 l -69 0 l 307 0 l 639 972 l 232 972 l 232 924 l 367 924 b 271 786 325 890 288 842 z "},"Í":{"ha":569,"x_min":0,"x_max":0,"o":"m 458 1396 l 381 1103 l 431 1103 b 618 1254 522 1103 589 1149 l 656 1396 z m 19 49 l -69 49 l -69 0 l 307 0 l 639 972 l 232 972 l 232 924 l 367 924 b 271 786 325 890 288 842 z "},"Î":{"ha":569,"x_min":0,"x_max":0,"o":"m 589 1165 b 713 1090 617 1121 671 1092 l 733 1090 l 551 1404 l 421 1404 b 238 1090 349 1282 301 1214 b 258 1090 235 1085 250 1090 b 383 1165 301 1092 354 1121 l 486 1343 z m 19 49 l -69 49 l -69 0 l 307 0 l 639 972 l 232 972 l 232 924 l 367 924 b 271 786 325 890 290 842 z "},"Ï":{"ha":569,"x_min":0,"x_max":0,"o":"m 465 1308 l 321 1308 l 281 1158 l 425 1158 z m 713 1307 l 569 1307 l 529 1158 l 672 1158 z m 19 49 l -69 49 l -69 0 l 307 0 l 639 972 l 232 972 l 232 924 l 367 924 b 271 786 325 890 288 842 z "},"Ł":{"ha":736,"x_min":0,"x_max":0,"o":"m 746 500 l 406 500 l 567 972 l 160 972 l 160 924 l 294 924 b 199 786 253 890 215 842 l 101 500 l -10 500 l -10 375 l 58 375 l -69 0 l 614 0 l 667 153 l 618 153 l 582 49 l 251 49 l 363 375 l 746 375 z "},"Ñ":{"ha":882,"x_min":0,"x_max":0,"o":"m 442 1361 b 267 1410 388 1394 326 1410 b 83 1361 203 1410 139 1392 l 83 1236 b 253 1281 142 1267 197 1281 b 442 1236 315 1281 378 1263 b 617 1188 496 1203 557 1188 b 800 1236 681 1188 744 1204 l 800 1361 b 632 1317 743 1329 686 1317 b 442 1361 568 1317 506 1333 z m 19 49 l -69 49 l -69 0 l 307 0 l 613 893 l 765 394 l 631 0 l 679 0 l 1011 972 l 963 972 l 792 474 l 639 972 l 232 972 l 232 924 l 367 924 b 271 786 325 890 288 843 z "},"Ò":{"ha":849,"x_min":0,"x_max":0,"o":"m 701 1396 l 504 1396 l 542 1254 b 729 1103 571 1149 638 1103 l 779 1103 z m 650 1 l 982 974 l 188 974 l 188 925 l 322 925 b 226 788 281 890 243 843 l -42 1 z m 615 50 l 279 50 l 531 785 b 729 925 574 883 651 925 l 914 925 z "},"Ó":{"ha":849,"x_min":0,"x_max":0,"o":"m 621 1396 l 543 1103 l 593 1103 b 781 1254 685 1103 751 1149 l 818 1396 z m 650 1 l 982 974 l 188 974 l 188 925 l 322 925 b 226 788 281 890 243 843 l -42 1 z m 615 50 l 279 50 l 531 785 b 729 925 574 883 651 925 l 914 925 z "},"Ô":{"ha":849,"x_min":0,"x_max":0,"o":"m 771 1179 b 894 1104 799 1135 853 1106 l 915 1104 l 733 1418 l 603 1418 b 419 1104 531 1296 483 1228 b 440 1104 417 1099 432 1104 b 565 1179 483 1106 536 1135 l 668 1357 z m 650 1 l 982 974 l 188 974 l 188 925 l 322 925 b 226 788 281 890 246 843 l -42 1 z m 615 50 l 279 50 l 531 785 b 729 925 574 883 651 925 l 914 925 z "},"˛":{"ha":758,"x_min":0,"x_max":0,"o":""},"Õ":{"ha":849,"x_min":0,"x_max":0,"o":"m 624 1361 b 449 1410 569 1394 508 1410 b 265 1361 385 1410 321 1392 l 265 1236 b 435 1281 324 1267 379 1281 b 624 1236 497 1281 560 1263 b 799 1188 678 1203 739 1188 b 982 1236 863 1188 926 1204 l 982 1361 b 814 1317 925 1329 868 1317 b 624 1361 750 1317 688 1333 z m 650 1 l 982 974 l 188 974 l 188 925 l 322 925 b 226 788 281 890 243 843 l -42 1 z m 615 50 l 279 50 l 531 785 b 729 925 574 883 651 925 l 914 925 z "},"Ö":{"ha":849,"x_min":0,"x_max":0,"o":"m 663 1308 l 518 1308 l 478 1158 l 622 1158 z m 910 1307 l 767 1307 l 726 1158 l 869 1158 z m 650 1 l 982 974 l 188 974 l 188 925 l 322 925 b 226 788 281 890 243 843 l -42 1 z m 615 50 l 279 50 l 531 785 b 729 925 574 883 651 925 l 914 925 z "},"Œ":{"ha":1743,"x_min":0,"x_max":0,"o":"m 650 1 l 982 974 l 188 974 l 188 925 l 322 925 b 226 788 281 890 243 843 l -42 1 z m 1786 924 l 1700 674 l 1751 674 l 1854 972 l 1060 972 l 1060 924 l 1194 924 b 1099 786 1153 890 1115 843 l 847 49 l 779 49 l 779 0 l 1522 0 l 1631 326 l 1579 326 l 1488 49 l 1151 49 l 1260 365 b 1457 501 1303 463 1379 501 l 1588 501 l 1558 419 l 1610 419 l 1676 611 l 1625 611 l 1604 550 l 1322 550 l 1403 785 b 1601 924 1446 883 1524 924 z m 615 50 l 279 50 l 531 785 b 729 925 574 883 651 925 l 914 925 z "},"Š":{"ha":868,"x_min":0,"x_max":0,"o":"m 658 1136 l 556 1314 b 431 1389 526 1358 474 1388 b 410 1389 422 1389 407 1394 b 593 1074 474 1265 521 1196 l 724 1074 l 906 1389 l 885 1389 b 761 1314 843 1388 789 1358 z m 883 694 l 978 972 l 351 972 b 143 786 275 968 178 889 l 39 479 l 531 479 l 431 185 b 233 49 388 89 311 49 l -32 49 l 58 321 l 10 321 l -97 0 l 549 0 b 713 119 619 0 699 79 l 850 528 l 360 528 l 447 785 b 646 924 492 883 568 924 l 913 924 l 835 694 z "},"Ù":{"ha":853,"x_min":0,"x_max":0,"o":"m 665 1396 l 468 1396 l 506 1254 b 693 1103 535 1149 601 1103 l 743 1103 z m 621 49 l 251 49 l 567 972 l 160 972 l 160 924 l 294 924 b 199 786 253 890 215 842 l -69 0 l 656 0 l 988 972 l 850 972 l 850 924 l 919 924 z "},"Ú":{"ha":853,"x_min":0,"x_max":0,"o":"m 674 1396 l 596 1103 l 646 1103 b 833 1254 738 1103 804 1149 l 871 1396 z m 621 49 l 251 49 l 567 972 l 160 972 l 160 924 l 294 924 b 199 786 253 890 215 842 l -69 0 l 656 0 l 988 972 l 850 972 l 850 924 l 919 924 z "},"Û":{"ha":853,"x_min":0,"x_max":0,"o":"m 706 1221 b 829 1146 733 1176 788 1147 l 850 1146 l 668 1460 l 538 1460 b 354 1146 465 1338 418 1269 b 375 1146 351 1140 367 1146 b 500 1221 418 1147 471 1176 l 603 1399 z m 621 49 l 251 49 l 567 972 l 160 972 l 160 924 l 294 924 b 199 786 253 890 215 842 l -69 0 l 656 0 l 988 972 l 850 972 l 850 924 l 919 924 z "},"Ü":{"ha":853,"x_min":0,"x_max":0,"o":"m 606 1308 l 461 1308 l 421 1158 l 565 1158 z m 853 1307 l 710 1307 l 669 1158 l 813 1158 z m 621 49 l 251 49 l 567 972 l 160 972 l 160 924 l 294 924 b 199 786 253 890 215 842 l -69 0 l 656 0 l 988 972 l 850 972 l 850 924 l 919 924 z "},"Ÿ":{"ha":722,"x_min":0,"x_max":0,"o":"m 457 1308 l 313 1308 l 272 1158 l 417 1158 z m 704 1307 l 561 1307 l 521 1158 l 664 1158 z m 269 975 l 125 972 l 125 924 l 167 925 l 281 329 l 185 49 l 69 49 l 69 0 l 472 0 l 804 972 l 415 972 l 415 924 l 532 924 b 436 786 490 890 453 843 l 314 429 l 219 926 l 269 926 z "},"Ý":{"ha":722,"x_min":0,"x_max":0,"o":"m 435 1396 l 357 1103 l 407 1103 b 594 1254 499 1103 565 1149 l 632 1396 z m 269 975 l 125 972 l 125 924 l 167 925 l 281 329 l 185 49 l 69 49 l 69 0 l 472 0 l 804 972 l 415 972 l 415 924 l 532 924 b 436 786 490 890 453 843 l 314 429 l 219 926 l 269 926 z "},"Ž":{"ha":842,"x_min":0,"x_max":0,"o":"m 421 1203 l 318 1381 b 193 1456 289 1425 236 1454 b 172 1456 185 1456 169 1461 b 356 1140 236 1332 283 1263 l 486 1140 l 668 1456 l 647 1456 b 524 1381 606 1454 551 1425 z m 210 924 l 549 924 b 421 786 504 894 460 850 l 1 0 l 706 0 l 753 139 l 704 139 l 672 49 l 363 49 l 822 972 l 178 972 l 131 833 l 179 833 z "},"à":{"ha":760,"x_min":0,"x_max":0,"o":"m 574 1118 l 376 1118 l 414 976 b 601 825 443 871 510 825 l 651 825 z m 578 0 l 815 694 l 335 694 b 138 576 193 694 171 646 l 86 454 l 138 453 l 169 525 b 350 646 214 610 210 644 l 543 646 b 447 508 500 613 464 564 l 407 374 l 113 375 b 14 239 81 369 56 363 l -68 0 z m 0 49 l 64 235 b 185 325 96 318 117 325 l 392 324 l 311 49 z "},"á":{"ha":760,"x_min":0,"x_max":0,"o":"m 529 1114 l 451 821 l 501 821 b 689 972 593 821 660 867 l 726 1114 z m 578 0 l 815 694 l 335 694 b 138 576 193 694 171 646 l 86 454 l 138 453 l 169 525 b 350 646 214 610 210 644 l 543 646 b 447 508 500 613 464 564 l 407 374 l 113 375 b 14 239 81 369 56 363 l -68 0 z m 0 49 l 64 235 b 185 325 96 318 117 325 l 392 324 l 311 49 z "},"â":{"ha":760,"x_min":0,"x_max":0,"o":"m 619 943 b 743 868 647 899 701 869 l 764 868 l 582 1182 l 451 1182 b 268 868 379 1060 332 992 b 289 868 265 863 281 868 b 414 943 332 869 385 899 l 517 1121 z m 578 0 l 815 694 l 335 694 b 138 576 193 694 171 646 l 86 454 l 138 453 l 169 525 b 350 646 214 610 210 644 l 543 646 b 447 508 500 613 464 564 l 407 374 l 113 375 b 14 239 81 369 56 363 l -68 0 z m 0 49 l 64 235 b 185 325 96 318 117 325 l 392 324 l 311 49 z "},"ã":{"ha":760,"x_min":0,"x_max":0,"o":"m 507 1086 b 332 1135 453 1119 392 1135 b 149 1086 268 1135 204 1117 l 149 961 b 318 1006 207 992 263 1006 b 507 961 381 1006 443 988 b 682 913 561 928 622 913 b 865 961 746 913 810 929 l 865 1086 b 697 1042 808 1054 751 1042 b 507 1086 633 1042 571 1058 z m 578 0 l 815 694 l 335 694 b 138 576 193 694 171 646 l 86 454 l 138 453 l 169 525 b 350 646 214 610 210 644 l 543 646 b 447 508 500 613 464 564 l 407 374 l 113 375 b 14 239 81 369 56 363 l -68 0 z m 0 49 l 64 235 b 185 325 96 318 117 325 l 392 324 l 311 49 z "},"ä":{"ha":760,"x_min":0,"x_max":0,"o":"m 513 1031 l 368 1031 l 328 881 l 472 881 z m 760 1029 l 617 1029 l 576 881 l 719 881 z m 578 0 l 815 694 l 335 694 b 138 576 193 694 171 646 l 86 454 l 138 453 l 169 525 b 350 646 214 610 210 644 l 543 646 b 447 508 500 613 464 564 l 407 374 l 113 375 b 14 239 81 369 56 363 l -68 0 z m 0 49 l 64 235 b 185 325 96 318 117 325 l 392 324 l 311 49 z "},"å":{"ha":760,"x_min":0,"x_max":0,"o":"m 708 785 l 815 1094 l 514 1094 b 389 993 463 1090 408 1057 l 318 785 z m 689 811 l 500 811 l 560 992 b 672 1068 585 1046 628 1068 l 776 1068 z m 578 0 l 815 694 l 335 694 b 138 576 193 694 167 647 l 86 454 l 138 453 l 169 525 b 350 646 214 610 210 646 l 543 646 b 447 508 500 613 464 564 l 407 374 l 113 375 b 14 239 81 369 56 363 l -68 0 z m 0 49 l 64 235 b 185 325 93 319 117 325 l 392 324 l 311 49 z "},"æ":{"ha":1624,"x_min":0,"x_max":0,"o":"m 578 0 l 815 694 l 335 694 b 138 576 193 694 171 646 l 86 454 l 138 453 l 169 525 b 350 646 214 610 210 644 l 543 646 b 447 508 500 613 464 564 l 407 374 l 113 375 b 14 239 81 369 56 363 l -68 0 z m 1481 176 l 1432 176 l 1386 42 l 1051 46 l 1088 150 b 1288 293 1131 251 1208 293 l 1521 293 l 1658 694 l 883 694 l 883 646 l 1000 646 b 904 508 958 613 921 564 l 732 0 l 1421 0 z m 1150 335 l 1210 511 b 1410 653 1254 611 1331 653 l 1596 653 l 1486 335 z m 0 49 l 64 235 b 185 325 96 318 117 325 l 392 324 l 311 49 z "},"ç":{"ha":915,"x_min":0,"x_max":0,"o":"m 850 403 l 950 694 l 157 694 l 157 646 l 292 646 b 196 508 250 613 213 564 l 40 49 l -28 49 l -28 0 l 713 0 l 790 228 l 742 228 l 678 42 l 343 44 l 501 511 b 701 653 546 611 622 653 l 888 653 l 801 403 z "},"đ":{"ha":953,"x_min":0,"x_max":0,"o":"m 1064 1219 l 308 1219 l 308 1094 l 1064 1094 z m -28 0 l 785 0 l 785 49 l 679 49 l 994 972 l 588 972 l 588 924 l 722 924 b 626 786 681 890 643 842 l 556 576 l 274 576 b 132 467 233 572 150 524 z m 56 49 l 154 386 b 358 535 197 492 233 535 l 540 535 l 375 49 z "},"è":{"ha":864,"x_min":0,"x_max":0,"o":"m 626 1114 l 429 1114 l 467 972 b 654 821 496 867 563 821 l 704 821 z m 721 176 l 672 176 l 626 42 l 292 46 l 328 150 b 528 293 371 251 449 293 l 761 293 l 899 694 l 124 694 l 124 646 l 240 646 b 144 508 199 613 161 564 l -28 0 l 661 0 z m 390 335 l 450 511 b 650 653 494 611 571 653 l 836 653 l 726 335 z "},"é":{"ha":864,"x_min":0,"x_max":0,"o":"m 372 1118 l 294 825 l 344 825 b 532 976 436 825 503 871 l 569 1118 z m 721 176 l 672 176 l 626 42 l 292 46 l 328 150 b 528 293 371 251 449 293 l 761 293 l 899 694 l 124 694 l 124 646 l 240 646 b 144 508 199 613 161 564 l -28 0 l 661 0 z m 390 335 l 450 511 b 650 653 494 611 571 653 l 836 653 l 726 335 z "},"œ":{"ha":1710,"x_min":0,"x_max":0,"o":"m 664 0 l 901 694 l 107 694 l 107 646 l 242 646 b 146 508 200 613 163 564 l -28 0 z m 1567 176 l 1518 176 l 1472 42 l 1138 46 l 1174 150 b 1374 293 1217 251 1294 293 l 1607 293 l 1744 694 l 969 694 l 969 646 l 1086 646 b 990 508 1044 613 1007 564 l 818 0 l 1507 0 z m 1236 335 l 1296 511 b 1496 653 1340 611 1417 653 l 1682 653 l 1572 335 z m 629 49 l 293 49 l 449 506 b 649 646 493 606 569 646 l 833 646 z "},"š":{"ha":865,"x_min":0,"x_max":0,"o":"m 433 925 l 331 1103 b 206 1178 301 1147 249 1176 b 185 1178 197 1178 182 1183 b 368 863 249 1054 296 985 l 499 863 l 681 1178 l 660 1178 b 536 1103 618 1176 564 1147 z m 828 501 l 893 694 l 322 694 b 114 508 246 690 146 613 l 61 339 l 497 339 l 450 194 b 249 49 407 90 329 49 l 38 49 l 86 193 l 38 193 l -28 0 l 544 0 b 753 186 621 4 721 82 l 814 388 l 378 388 l 422 522 b 613 646 467 610 539 646 l 828 646 l 779 501 z "},"ö":{"ha":846,"x_min":0,"x_max":0,"o":"m 392 1031 l 247 1031 l 207 881 l 351 881 z m 639 1029 l 496 1029 l 456 881 l 599 881 z m 664 0 l 901 694 l 107 694 l 107 646 l 242 646 b 146 508 200 613 163 564 l -28 0 z m 629 49 l 293 49 l 449 506 b 649 646 493 606 569 646 l 833 646 z "},"õ":{"ha":846,"x_min":0,"x_max":0,"o":"m 424 1083 b 249 1132 369 1117 308 1132 b 65 1083 185 1132 121 1114 l 65 958 b 235 1003 124 989 179 1003 b 424 958 297 1003 360 985 b 599 910 478 925 539 910 b 782 958 663 910 726 926 l 782 1083 b 614 1039 725 1051 668 1039 b 424 1083 550 1039 488 1056 z m 664 0 l 901 694 l 107 694 l 107 646 l 242 646 b 146 508 200 613 163 564 l -28 0 z m 629 49 l 293 49 l 449 506 b 649 646 493 606 569 646 l 833 646 z "},"ô":{"ha":846,"x_min":0,"x_max":0,"o":"m 629 940 b 753 865 657 896 711 867 l 774 865 l 592 1179 l 461 1179 b 278 865 389 1057 342 989 b 299 865 275 860 290 865 b 424 940 342 867 394 896 l 526 1118 z m 664 0 l 901 694 l 107 694 l 107 646 l 242 646 b 146 508 200 613 163 564 l -28 0 z m 629 49 l 293 49 l 449 506 b 649 646 493 606 569 646 l 833 646 z "},"ó":{"ha":846,"x_min":0,"x_max":0,"o":"m 542 1114 l 464 821 l 514 821 b 701 972 606 821 672 867 l 739 1114 z m 664 0 l 901 694 l 107 694 l 107 646 l 242 646 b 146 508 200 613 163 564 l -28 0 z m 629 49 l 293 49 l 449 506 b 649 646 493 606 569 646 l 833 646 z "},"ò":{"ha":846,"x_min":0,"x_max":0,"o":"m 621 1113 l 424 1113 l 461 971 b 649 819 490 865 557 819 l 699 819 z m 664 0 l 901 694 l 107 694 l 107 646 l 242 646 b 146 508 200 613 163 564 l -28 0 z m 629 49 l 293 49 l 449 506 b 649 646 493 606 569 646 l 833 646 z "},"ñ":{"ha":833,"x_min":0,"x_max":0,"o":"m 586 986 b 411 1035 532 1019 471 1035 b 228 986 347 1035 283 1017 l 228 861 b 397 906 286 892 342 906 b 586 861 460 906 522 888 b 761 813 640 832 701 813 b 944 861 825 813 889 829 l 944 986 b 776 942 888 954 831 942 b 586 986 713 942 650 958 z m -56 0 l 319 0 l 492 506 b 692 646 536 606 613 646 l 835 646 l 614 0 l 665 0 l 903 694 l 150 694 l 150 646 l 285 646 b 189 508 243 613 208 564 l 32 49 l -56 49 z "},"ł":{"ha":613,"x_min":0,"x_max":0,"o":"m 683 500 l 493 500 l 654 972 l 206 972 l 206 924 l 382 924 b 286 786 340 890 303 842 l 189 500 l -72 500 l -72 375 l 146 375 l 35 49 l -49 49 l -49 0 l 446 0 l 446 49 l 339 49 l 450 375 l 683 375 z "},"ï":{"ha":564,"x_min":0,"x_max":0,"o":"m 106 1031 l 65 881 l 210 881 l 250 1031 z m 501 968 b 479 965 494 968 488 967 l 497 1029 l 354 1029 l 314 881 l 350 881 b 293 782 326 853 306 818 l 285 757 l 589 757 l 661 968 z m 43 49 l -42 49 l -42 0 l 331 0 l 568 694 l 408 694 b 200 508 332 690 235 611 z "},"î":{"ha":564,"x_min":0,"x_max":0,"o":"m 554 818 b 678 743 582 774 636 744 l 699 743 l 517 1057 l 386 1057 b 203 743 314 935 267 867 b 224 743 200 738 215 743 b 349 818 267 744 319 774 l 451 996 z m 331 0 l 568 694 l 408 694 b 200 508 332 690 235 611 l 43 49 l -42 49 l -42 0 z "},"í":{"ha":564,"x_min":0,"x_max":0,"o":"m 453 1050 l 375 757 l 425 757 b 613 908 517 757 583 803 l 650 1050 z m 331 0 l 568 694 l 408 694 b 200 508 332 690 235 611 l 43 49 l -42 49 l -42 0 z "},"ì":{"ha":564,"x_min":0,"x_max":0,"o":"m 499 1050 l 301 1050 l 339 908 b 526 757 368 803 435 757 l 576 757 z m 331 0 l 568 694 l 408 694 b 200 508 332 690 235 611 l 43 49 l -42 49 l -42 0 z "},"ž":{"ha":806,"x_min":0,"x_max":0,"o":"m 403 925 l 300 1103 b 175 1178 271 1147 218 1176 b 154 1178 167 1178 151 1183 b 338 863 218 1054 265 985 l 468 863 l 650 1178 l 629 1178 b 506 1103 588 1176 533 1147 z m 142 649 l 456 649 b 328 511 411 619 367 575 l -56 0 l 653 0 l 700 139 l 651 139 l 621 49 l 333 49 l 750 697 l 110 697 l 63 558 l 111 558 z "},"ÿ":{"ha":707,"x_min":0,"x_max":0,"o":"m 406 975 l 261 975 l 221 825 l 365 825 z m 653 974 l 510 974 l 469 825 l 613 825 z m 186 699 l 42 696 l 42 647 l 83 647 l 197 53 l 101 -228 l -14 -228 l -14 -276 l 389 -276 l 721 696 l 332 696 l 332 647 l 449 647 b 353 510 407 614 372 565 l 231 153 l 136 649 l 186 650 z "},"ý":{"ha":707,"x_min":0,"x_max":0,"o":"m 293 1118 l 215 825 l 265 825 b 453 976 357 825 424 871 l 490 1118 z m 186 699 l 42 696 l 42 647 l 83 647 l 197 53 l 101 -228 l -14 -228 l -14 -276 l 389 -276 l 721 696 l 332 696 l 332 647 l 449 647 b 353 510 407 614 369 565 l 231 153 l 136 649 l 186 650 z "},"ü":{"ha":879,"x_min":0,"x_max":0,"o":"m 557 1031 l 413 1031 l 372 881 l 517 881 z m 804 1029 l 661 1029 l 621 881 l 764 881 z m 279 49 l 500 694 l 149 694 l 149 646 l 228 646 b 132 508 186 613 149 564 l -42 0 l 683 0 l 921 694 l 783 694 l 783 646 l 853 646 l 649 49 z "},"ú":{"ha":879,"x_min":0,"x_max":0,"o":"m 610 1072 l 532 779 l 582 779 b 769 931 674 779 740 825 l 807 1072 z m 279 49 l 500 694 l 149 694 l 149 646 l 228 646 b 132 508 186 613 151 564 l -42 0 l 683 0 l 921 694 l 783 694 l 783 646 l 853 646 l 649 49 z "},"ù":{"ha":879,"x_min":0,"x_max":0,"o":"m 621 1069 l 424 1069 l 461 928 b 649 776 490 822 557 776 l 699 776 z m 279 49 l 500 694 l 149 694 l 149 646 l 228 646 b 132 508 186 613 151 564 l -42 0 l 683 0 l 921 694 l 783 694 l 783 646 l 853 646 l 649 49 z "},"ë":{"ha":864,"x_min":0,"x_max":0,"o":"m 506 1031 l 361 1031 l 321 881 l 465 881 z m 753 1029 l 610 1029 l 569 881 l 713 881 z m 721 176 l 672 176 l 626 42 l 292 46 l 328 150 b 528 293 371 251 449 293 l 761 293 l 899 694 l 124 694 l 124 646 l 240 646 b 144 508 199 613 161 564 l -28 0 l 661 0 z m 390 335 l 450 511 b 650 653 494 611 571 653 l 836 653 l 726 335 z "},"ê":{"ha":864,"x_min":0,"x_max":0,"o":"m 626 933 b 750 858 654 889 708 860 l 771 858 l 589 1172 l 458 1172 b 275 858 386 1050 339 982 b 296 858 272 853 288 858 b 421 933 339 860 392 889 l 524 1111 z m 721 176 l 672 176 l 626 42 l 292 46 l 328 150 b 528 293 371 251 449 293 l 761 293 l 899 694 l 124 694 l 124 646 l 240 646 b 144 508 199 613 161 564 l -28 0 l 661 0 z m 390 335 l 450 511 b 650 653 494 611 571 653 l 836 653 l 726 335 z "},"Ø":{"ha":849,"x_min":0,"x_max":0,"o":"m 800 974 l 846 1110 l 714 1110 l 668 974 l 188 974 l 188 925 l 322 925 b 226 788 281 890 243 843 l -42 1 l 338 1 l 278 -172 l 410 -172 l 469 1 l 650 1 l 982 974 z m 783 925 l 914 925 l 615 50 l 485 50 z m 531 785 b 644 907 558 847 599 886 l 353 50 l 279 50 z "},"ø":{"ha":846,"x_min":0,"x_max":0,"o":"m 694 694 l 818 1057 l 686 1057 l 563 694 l 107 694 l 107 646 l 242 646 b 146 508 200 613 163 564 l -28 0 l 326 0 l 250 -225 l 382 -225 l 458 0 l 664 0 l 901 694 z m 678 646 l 833 646 l 629 49 l 475 49 z m 449 506 b 535 613 471 556 501 590 l 343 49 l 293 49 z "},"û":{"ha":879,"x_min":0,"x_max":0,"o":"m 711 888 b 835 813 739 843 793 814 l 856 813 l 674 1126 l 543 1126 b 360 813 471 1004 424 936 b 381 813 357 807 372 813 b 506 888 424 814 476 843 l 608 1065 z m 279 49 l 500 694 l 149 694 l 149 646 l 228 646 b 132 508 186 613 151 564 l -42 0 l 683 0 l 921 694 l 783 694 l 783 646 l 853 646 l 649 49 z "}}}
